<svg xmlns="http://www.w3.org/2000/svg" width="24" height="23.5" viewBox="0 0 24 23.5"><path d="M12,.25A12.05,12.05,0,0,0,8.21,23.73c.6.11.82-.26.82-.58s0-1,0-2c-3.34.73-4-1.62-4-1.62a3.21,3.21,0,0,0-1.33-1.76C2.55,17,3.72,17,3.72,17a2.52,2.52,0,0,1,1.83,1.24,2.56,2.56,0,0,0,3.5,1,2.59,2.59,0,0,1,.76-1.61c-2.66-.3-5.47-1.34-5.47-6A4.68,4.68,0,0,1,5.58,8.43,4.31,4.31,0,0,1,5.7,5.25s1-.33,3.3,1.23a11.08,11.08,0,0,1,3-.4,11.2,11.2,0,0,1,3,.4C17.3,4.92,18.3,5.25,18.3,5.25a4.29,4.29,0,0,1,.12,3.19,4.64,4.64,0,0,1,1.24,3.23c0,4.63-2.81,5.65-5.48,5.94A2.9,2.9,0,0,1,15,19.84c0,1.62,0,2.91,0,3.31s.21.7.82.58A12.06,12.06,0,0,0,12,.25Z" transform="translate(0 -0.25)"/></svg>