<svg xmlns="http://www.w3.org/2000/svg" width="24" height="20.74" viewBox="0 0 24 20.74"><path d="M12,6a5.45,5.45,0,0,1,5.45,5.45,5.32,5.32,0,0,1-.39,2l3.19,3.19A13,13,0,0,0,24,11.45,12.91,12.91,0,0,0,12,3.27,12.73,12.73,0,0,0,7.65,4L10,6.39A5.32,5.32,0,0,1,12,6ZM1.09,3,3.58,5.51l.5.5A12.88,12.88,0,0,0,0,11.45a12.9,12.9,0,0,0,16.79,7.27l.45.46,3.2,3.19L21.83,21,2.48,1.63Zm6,6,1.69,1.69a2.82,2.82,0,0,0-.09.71A3.27,3.27,0,0,0,12,14.73a2.69,2.69,0,0,0,.7-.09l1.7,1.69A5.42,5.42,0,0,1,7.13,9.05Zm4.7-.85,3.44,3.44,0-.17A3.27,3.27,0,0,0,12,8.19Z" transform="translate(0 -1.63)"/></svg>