<svg xmlns="http://www.w3.org/2000/svg" width="24" height="24" viewBox="0 0 24 24"><path d="M23.94,7.06a8.77,8.77,0,0,0-.56-2.92A5.79,5.79,0,0,0,22,2,5.85,5.85,0,0,0,19.87.63,9.08,9.08,0,0,0,17,.07C15.67,0,15.26,0,12,0S8.34,0,7.06.07A8.46,8.46,0,0,0,4.15.63,5.81,5.81,0,0,0,2,2,5.91,5.91,0,0,0,.63,4.14,8.74,8.74,0,0,0,.08,7.05C0,8.34,0,8.74,0,12S0,15.67.07,17a8.71,8.71,0,0,0,.56,2.91A5.83,5.83,0,0,0,2,22a5.85,5.85,0,0,0,2.12,1.38,8.57,8.57,0,0,0,2.91.56C8.33,24,8.74,24,12,24s3.67,0,4.95-.07a8.52,8.52,0,0,0,2.91-.56,6.13,6.13,0,0,0,3.51-3.51A8.71,8.71,0,0,0,23.93,17C24,15.67,24,15.26,24,12S24,8.34,23.94,7.06Zm-2.16,9.8a6.29,6.29,0,0,1-.42,2.22,4,4,0,0,1-2.27,2.28,6.49,6.49,0,0,1-2.23.41c-1.27.06-1.65.08-4.85.08s-3.59,0-4.85-.08a6.49,6.49,0,0,1-2.23-.41,3.69,3.69,0,0,1-1.38-.89,3.81,3.81,0,0,1-.89-1.38,6.43,6.43,0,0,1-.41-2.23c-.06-1.27-.07-1.65-.07-4.85s0-3.59.07-4.85a6.36,6.36,0,0,1,.41-2.22,3.63,3.63,0,0,1,.9-1.38,3.71,3.71,0,0,1,1.38-.9,6.68,6.68,0,0,1,2.23-.41c1.26-.06,1.64-.07,4.84-.07s3.59,0,4.85.07a6.62,6.62,0,0,1,2.23.41,3.94,3.94,0,0,1,2.27,2.28,6.35,6.35,0,0,1,.42,2.22c0,1.27.07,1.65.07,4.85S21.83,15.59,21.78,16.86Z" transform="translate(0 0)"/><path d="M12,5.84A6.17,6.17,0,1,0,18.17,12,6.16,6.16,0,0,0,12,5.84ZM12,16a4,4,0,1,1,4-4A4,4,0,0,1,12,16Z" transform="translate(0 0)"/><path d="M19.85,5.59a1.44,1.44,0,1,1-1.44-1.44A1.43,1.43,0,0,1,19.85,5.59Z" transform="translate(0 0)"/></svg>