<svg xmlns="http://www.w3.org/2000/svg" width="24" height="21.6" viewBox="0 0 24 21.6"><path d="M10,6.84h0a1.18,1.18,0,0,0,0,1.68l2.28,2.28H1.2A1.2,1.2,0,0,0,0,12H0a1.2,1.2,0,0,0,1.2,1.2h11L10,15.48a1.18,1.18,0,0,0,0,1.68h0a1.18,1.18,0,0,0,1.68,0L16,12.85a1.19,1.19,0,0,0,0-1.69L11.64,6.84A1.18,1.18,0,0,0,10,6.84ZM21.6,20.4H13.2A1.2,1.2,0,0,0,12,21.6h0a1.2,1.2,0,0,0,1.2,1.2h8.4A2.41,2.41,0,0,0,24,20.4V3.6a2.41,2.41,0,0,0-2.4-2.4H13.2A1.2,1.2,0,0,0,12,2.4h0a1.2,1.2,0,0,0,1.2,1.2h8.4Z" transform="translate(0 -1.2)"/></svg>