<svg xmlns="http://www.w3.org/2000/svg" width="23.72" height="24" viewBox="0 0 23.72 24"><title>logout</title><path d="M2.81,2.67h8a1.34,1.34,0,0,0,1.33-1.34h0A1.34,1.34,0,0,0,10.81,0h-8A2.68,2.68,0,0,0,.14,2.67V21.33A2.68,2.68,0,0,0,2.81,24h8a1.34,1.34,0,0,0,1.33-1.33h0a1.34,1.34,0,0,0-1.33-1.34h-8Z" transform="translate(-0.14)"/><path d="M23.67,11.53,20,7.81a.67.67,0,0,0-1.14.47v2.39H9.47A1.34,1.34,0,0,0,8.14,12h0a1.34,1.34,0,0,0,1.33,1.33h9.34v2.39a.66.66,0,0,0,1.13.47l3.72-3.72A.66.66,0,0,0,23.67,11.53Z" transform="translate(-0.14)"/></svg>