<svg xmlns="http://www.w3.org/2000/svg" width="24" height="19.5" viewBox="0 0 24 19.5"><path d="M24,4.56a10.38,10.38,0,0,1-2.84.78,4.89,4.89,0,0,0,2.17-2.72,10.14,10.14,0,0,1-3.12,1.19A4.92,4.92,0,0,0,11.7,7.17a5.07,5.07,0,0,0,.11,1.12A13.94,13.94,0,0,1,1.67,3.15,4.93,4.93,0,0,0,3.18,9.72,4.81,4.81,0,0,1,1,9.12v.05A5,5,0,0,0,4.9,14a5.3,5.3,0,0,1-1.29.16,4.13,4.13,0,0,1-.93-.09,5,5,0,0,0,4.6,3.43,9.9,9.9,0,0,1-6.1,2.1A9.12,9.12,0,0,1,0,19.54a13.81,13.81,0,0,0,7.55,2.21,13.91,13.91,0,0,0,14-14c0-.22,0-.43,0-.64A9.82,9.82,0,0,0,24,4.56Z" transform="translate(0 -2.25)"/></svg>