<svg version="1.1" xmlns="http://www.w3.org/2000/svg" xmlns:xlink="http://www.w3.org/1999/xlink" x="0px" y="0px"
	 viewBox="0 0 122.8 32" style="enable-background:new 0 0 122.8 32;" xml:space="preserve">
<path d="M44.7,22.6c-0.3,0.2-0.6,0.4-1,0.5c-0.4,0.1-0.8,0.1-1.3,0.1c-1.2,0-2.1-0.3-2.7-0.9c-0.6-0.6-1-1.5-1-2.6v-4h-1.5v-2.2h1.5
	V11h2.9v2.4H44v2.2h-2.5v4c0,0.4,0.1,0.7,0.3,1c0.2,0.2,0.5,0.3,0.9,0.3c0.5,0,0.8-0.1,1.2-0.4L44.7,22.6z M50.7,23.2
	c-1,0-2-0.2-2.8-0.6c-0.8-0.4-1.5-1-1.9-1.8c-0.5-0.8-0.7-1.6-0.7-2.6s0.2-1.8,0.7-2.6c0.5-0.8,1.1-1.4,1.9-1.8
	c0.8-0.4,1.8-0.7,2.8-0.7s2,0.2,2.8,0.7c0.8,0.4,1.5,1,1.9,1.8c0.5,0.8,0.7,1.6,0.7,2.6s-0.2,1.8-0.7,2.6c-0.5,0.8-1.1,1.4-1.9,1.8
	C52.7,23,51.8,23.2,50.7,23.2z M50.7,20.9c0.7,0,1.3-0.2,1.8-0.7c0.5-0.5,0.7-1.2,0.7-2s-0.2-1.5-0.7-2c-0.5-0.5-1.1-0.8-1.8-0.8
	s-1.3,0.3-1.8,0.8c-0.5,0.5-0.7,1.1-0.7,2s0.2,1.5,0.7,2C49.4,20.6,50,20.9,50.7,20.9z M68.1,9.5v13.6h-2.7v-1.1
	c-0.7,0.9-1.7,1.3-3.1,1.3c-0.9,0-1.8-0.2-2.5-0.6c-0.7-0.4-1.3-1-1.8-1.8c-0.4-0.8-0.6-1.7-0.6-2.7s0.2-1.9,0.6-2.7
	c0.4-0.8,1-1.4,1.8-1.8c0.8-0.4,1.6-0.6,2.5-0.6c1.3,0,2.2,0.4,2.9,1.2V9.5H68.1z M62.8,20.9c0.7,0,1.3-0.2,1.8-0.7
	c0.5-0.5,0.7-1.2,0.7-2s-0.2-1.5-0.7-2c-0.5-0.5-1.1-0.8-1.8-0.8c-0.7,0-1.3,0.3-1.8,0.8c-0.5,0.5-0.7,1.1-0.7,2s0.2,1.5,0.7,2
	C61.4,20.6,62,20.9,62.8,20.9z M75.4,23.2c-1,0-2-0.2-2.8-0.6c-0.8-0.4-1.5-1-1.9-1.8C70.2,20,70,19.1,70,18.1s0.2-1.8,0.7-2.6
	c0.5-0.8,1.1-1.4,1.9-1.8c0.8-0.4,1.8-0.7,2.8-0.7c1,0,2,0.2,2.8,0.7c0.8,0.4,1.5,1,1.9,1.8c0.5,0.8,0.7,1.6,0.7,2.6
	s-0.2,1.8-0.7,2.6c-0.5,0.8-1.1,1.4-1.9,1.8C77.4,23,76.4,23.2,75.4,23.2z M75.4,20.9c0.7,0,1.3-0.2,1.8-0.7c0.5-0.5,0.7-1.2,0.7-2
	s-0.2-1.5-0.7-2c-0.5-0.5-1.1-0.8-1.8-0.8c-0.7,0-1.3,0.3-1.8,0.8c-0.5,0.5-0.7,1.1-0.7,2s0.2,1.5,0.7,2
	C74.1,20.6,74.7,20.9,75.4,20.9z M87.5,23.2c-1,0-2-0.2-2.8-0.6c-0.8-0.4-1.5-1-2-1.8C82.2,20,82,19.1,82,18.1s0.2-1.8,0.7-2.6
	c0.5-0.8,1.1-1.4,2-1.8c0.8-0.4,1.8-0.7,2.8-0.7c1,0,1.9,0.2,2.7,0.7c0.8,0.4,1.3,1,1.7,1.8l-2.2,1.2c-0.5-0.9-1.3-1.4-2.2-1.4
	c-0.7,0-1.4,0.2-1.8,0.7c-0.5,0.5-0.7,1.2-0.7,2s0.2,1.5,0.7,2c0.5,0.5,1.1,0.7,1.8,0.7c1,0,1.7-0.5,2.2-1.4l2.2,1.2
	c-0.4,0.8-0.9,1.4-1.7,1.8C89.4,23,88.5,23.2,87.5,23.2z M97.7,19.2l-1.4,1.4v2.5h-2.9V9.5h2.9v7.7l4.2-4h3.4l-4.1,4.2l4.5,5.7h-3.5
	L97.7,19.2z M114.8,18.2c0,0,0,0.3-0.1,0.8h-7.5c0.1,0.6,0.5,1.1,1,1.4c0.5,0.4,1.1,0.5,1.9,0.5c0.5,0,1-0.1,1.4-0.2
	c0.4-0.2,0.8-0.4,1.1-0.7l1.5,1.6c-0.9,1.1-2.3,1.6-4.1,1.6c-1.1,0-2.1-0.2-2.9-0.6c-0.9-0.4-1.5-1-2-1.8c-0.5-0.8-0.7-1.6-0.7-2.6
	c0-1,0.2-1.8,0.7-2.6c0.5-0.8,1.1-1.4,1.9-1.8c0.8-0.4,1.7-0.7,2.7-0.7c1,0,1.8,0.2,2.6,0.6c0.8,0.4,1.4,1,1.8,1.8
	C114.5,16.3,114.8,17.2,114.8,18.2z M109.6,15.2c-0.6,0-1.2,0.2-1.6,0.5c-0.4,0.4-0.7,0.9-0.8,1.5h4.9c-0.1-0.6-0.4-1.1-0.8-1.5
	C110.8,15.4,110.3,15.2,109.6,15.2z M119.4,14.5c0.3-0.5,0.8-0.8,1.4-1.1c0.6-0.2,1.3-0.4,2-0.4v2.6c-0.3,0-0.5,0-0.6,0
	c-0.8,0-1.5,0.2-1.9,0.7c-0.5,0.5-0.7,1.1-0.7,2.1v4.6h-2.9v-9.8h2.7V14.5z"/>
<path d="M12,11.9c-0.4-0.3-1-0.3-1.4,0.2l-2.8,3.5l-1.4-1.1c-0.4-0.3-1-0.3-1.4,0.2c-0.3,0.4-0.3,1,0.2,1.4l2.1,1.7
	c0.2,0.2,0.5,0.2,0.7,0.2c0.2,0,0.5-0.2,0.7-0.4l3.4-4.3C12.5,12.9,12.4,12.2,12,11.9z"/>
<path d="M12.9,19.6c-0.4-0.3-1-0.3-1.4,0.2l-2.8,3.5l-1.4-1.1c-0.4-0.3-1-0.3-1.4,0.2c-0.3,0.4-0.3,1,0.2,1.4l2.1,1.7
	c0.2,0.2,0.5,0.2,0.7,0.2c0.2,0,0.5-0.2,0.7-0.4L13,21C13.4,20.6,13.3,20,12.9,19.6z"/>
<path d="M19.2,12.8l-3.9,0.4c-0.5,0.1-0.9,0.5-0.9,1.1c0.1,0.5,0.5,0.9,1.1,0.9l3.9-0.4c0.5-0.1,0.9-0.5,0.9-1.1
	C20.2,13.1,19.8,12.7,19.2,12.8z"/>
<path d="M20.1,20.5l-3.9,0.4c-0.5,0.1-0.9,0.5-0.9,1.1c0.1,0.5,0.5,0.9,1.1,0.9l3.9-0.4c0.5-0.1,0.9-0.5,0.9-1.1
	C21.1,20.8,20.6,20.4,20.1,20.5z"/>
<path d="M21,2.8l-3.9,0.4l-0.1-1C17,1.7,16.5,1.3,16,1.4l-2.1,0.2c-0.5-1.1-1.7-1.8-3-1.6C9.7,0.2,8.7,1.1,8.4,2.3L6.3,2.5
	C5.8,2.6,5.4,3,5.5,3.6l0.1,1L1.7,5C0.7,5.1-0.1,6.1,0,7.1l2.6,23.1c0.1,1.1,1.1,1.8,2.1,1.7l19.3-2.2c1.1-0.1,1.8-1.1,1.7-2.1
	L23.2,4.5C23,3.4,22.1,2.7,21,2.8z M7.5,4.3l1.9-0.2C10,4,10.4,3.6,10.3,3c-0.1-0.5,0.3-1,0.9-1.1c0.5-0.1,1,0.3,1.1,0.9
	c0.1,0.5,0.5,0.9,1.1,0.9l1.9-0.2l0.2,1.9L7.7,6.2L7.5,4.3z M23.9,27.9L4.6,30.1L1.9,6.9l3.9-0.4l0.1,1C6,8,6.5,8.3,7,8.3l9.6-1.1
	c0.5-0.1,0.9-0.5,0.9-1.1l-0.1-1l3.9-0.4L23.9,27.9z"/>
</svg>
