<svg xmlns="http://www.w3.org/2000/svg" width="122.77" height="32" viewBox="0 0 122.77 32"><path d="M44.74,22.59a3,3,0,0,1-1,.48,5.28,5.28,0,0,1-1.28.15,3.87,3.87,0,0,1-2.73-.9,3.48,3.48,0,0,1-.95-2.64v-4H37.22v-2.2h1.52V11H41.6v2.4h2.45v2.2H41.6v4a1.41,1.41,0,0,0,.31,1,1.22,1.22,0,0,0,.91.33A1.89,1.89,0,0,0,44,20.58Zm6,.63a6.11,6.11,0,0,1-2.8-.64,4.92,4.92,0,0,1-2.62-4.43,4.92,4.92,0,0,1,.7-2.62,4.76,4.76,0,0,1,1.92-1.8,5.88,5.88,0,0,1,2.8-.66,5.77,5.77,0,0,1,2.78.66,4.76,4.76,0,0,1,1.92,1.8,5.23,5.23,0,0,1,0,5.23,4.88,4.88,0,0,1-1.92,1.82A6,6,0,0,1,50.73,23.22Zm0-2.35a2.34,2.34,0,0,0,1.79-.73,2.75,2.75,0,0,0,.72-2,2.71,2.71,0,0,0-.72-2,2.33,2.33,0,0,0-1.79-.75,2.38,2.38,0,0,0-1.81.75,2.71,2.71,0,0,0-.72,2,2.75,2.75,0,0,0,.72,2A2.4,2.4,0,0,0,50.73,20.87ZM68.07,9.49V23.07H65.34V21.93a3.74,3.74,0,0,1-3.07,1.29,5.13,5.13,0,0,1-2.53-.63A4.47,4.47,0,0,1,58,20.82a5.49,5.49,0,0,1-.64-2.67A5.5,5.5,0,0,1,58,15.47a4.47,4.47,0,0,1,1.76-1.77,5.13,5.13,0,0,1,2.53-.63,3.74,3.74,0,0,1,2.94,1.19V9.49ZM62.76,20.87a2.41,2.41,0,0,0,1.8-.73,2.78,2.78,0,0,0,.71-2,2.74,2.74,0,0,0-.71-2,2.55,2.55,0,0,0-3.61,0,2.7,2.7,0,0,0-.71,2,2.74,2.74,0,0,0,.71,2A2.42,2.42,0,0,0,62.76,20.87ZM75.4,23.22a6.11,6.11,0,0,1-2.8-.64A4.92,4.92,0,0,1,70,18.15a4.92,4.92,0,0,1,.7-2.62,4.76,4.76,0,0,1,1.92-1.8,5.88,5.88,0,0,1,2.8-.66,5.77,5.77,0,0,1,2.78.66,4.76,4.76,0,0,1,1.92,1.8,5.23,5.23,0,0,1,0,5.23,4.88,4.88,0,0,1-1.92,1.82A6,6,0,0,1,75.4,23.22Zm0-2.35a2.34,2.34,0,0,0,1.79-.73,2.75,2.75,0,0,0,.72-2,2.71,2.71,0,0,0-.72-2,2.33,2.33,0,0,0-1.79-.75,2.38,2.38,0,0,0-1.81.75,2.71,2.71,0,0,0-.72,2,2.75,2.75,0,0,0,.72,2A2.4,2.4,0,0,0,75.4,20.87Zm12.07,2.35a6.28,6.28,0,0,1-2.84-.64,5.06,5.06,0,0,1-2-1.82,5.3,5.3,0,0,1,0-5.23,4.94,4.94,0,0,1,2-1.8,6,6,0,0,1,2.84-.66,5.36,5.36,0,0,1,2.71.66,3.82,3.82,0,0,1,1.7,1.85l-2.21,1.19a2.44,2.44,0,0,0-2.22-1.35,2.51,2.51,0,0,0-1.85.73,2.69,2.69,0,0,0-.73,2,2.68,2.68,0,0,0,.73,2,2.51,2.51,0,0,0,1.85.73,2.41,2.41,0,0,0,2.22-1.35l2.21,1.21a3.91,3.91,0,0,1-1.7,1.83A5.36,5.36,0,0,1,87.47,23.22Zm10.21-4-1.37,1.35v2.51H93.45V9.49h2.86v7.69l4.17-4h3.41l-4.1,4.17,4.46,5.68h-3.46Zm17.08-1s0,.29-.06.77h-7.45a2.33,2.33,0,0,0,1,1.45,3.18,3.18,0,0,0,1.87.53,4,4,0,0,0,1.35-.22,3.33,3.33,0,0,0,1.12-.73l1.52,1.64a5.08,5.08,0,0,1-4.06,1.6,6.6,6.6,0,0,1-3-.64,4.85,4.85,0,0,1-2-1.82,5.33,5.33,0,0,1,0-5.21,4.86,4.86,0,0,1,1.89-1.82,5.79,5.79,0,0,1,5.31,0,4.44,4.44,0,0,1,1.83,1.79A5.24,5.24,0,0,1,114.76,18.18Zm-5.11-2.95a2.49,2.49,0,0,0-1.63.55,2.37,2.37,0,0,0-.81,1.5h4.85a2.29,2.29,0,0,0-.8-1.48A2.38,2.38,0,0,0,109.65,15.23Zm9.73-.71a3.16,3.16,0,0,1,1.38-1.08,5.22,5.22,0,0,1,2-.37v2.64l-.64,0a2.6,2.6,0,0,0-1.92.7,2.71,2.71,0,0,0-.7,2.05v4.65h-2.85V13.22h2.72Z"/><path d="M12,11.91a1,1,0,0,0-1.37.15L7.82,15.6,6.43,14.5a1,1,0,0,0-1.36.15A1,1,0,0,0,5.22,16l2.15,1.71a1,1,0,0,0,1.37-.16l3.42-4.3A1,1,0,0,0,12,11.91Z"/><path d="M12.88,19.63a1,1,0,0,0-1.37.15L8.7,23.32l-1.39-1.1A1,1,0,0,0,6,22.37a1,1,0,0,0,.16,1.37l2.15,1.71a1,1,0,0,0,.71.2,1,1,0,0,0,.65-.36L13,21A1,1,0,0,0,12.88,19.63Z"/><path d="M19.22,12.75l-3.86.44a1,1,0,0,0,.22,1.93l3.86-.44a1,1,0,1,0-.22-1.93Z"/><path d="M20.1,20.47l-3.86.44a1,1,0,0,0,.22,1.93l3.86-.44a1,1,0,1,0-.22-1.93Z"/><path d="M21,2.78l-3.86.44-.11-1A1,1,0,0,0,16,1.4l-2.09.24a2.91,2.91,0,0,0-5.46.62l-2.1.24a1,1,0,0,0-.85,1.07l.11,1L1.72,5A2,2,0,0,0,0,7.13L2.66,30.28A1.94,1.94,0,0,0,4.81,32L24.1,29.78a1.94,1.94,0,0,0,1.71-2.15L23.16,4.48A1.93,1.93,0,0,0,21,2.78ZM7.51,4.32,9.44,4.1A1,1,0,0,0,10.29,3a1,1,0,0,1,1.93-.22,1,1,0,0,0,1.08.86l1.93-.22.22,1.93-7.72.88ZM23.88,27.85,4.59,30.06,1.94,6.91,5.8,6.47l.11,1A1,1,0,0,0,7,8.29l9.64-1.11a1,1,0,0,0,.86-1.07l-.11-1,3.85-.45Z"/></svg>