<svg xmlns="http://www.w3.org/2000/svg" width="18" height="24" viewBox="0 0 18 24"><path d="M11.78,9.22a.75.75,0,0,0-1.06,0L8.25,11.69l-1-1a.75.75,0,0,0-1.06,1.06l1.5,1.5a.75.75,0,0,0,1.06,0l3-3A.75.75,0,0,0,11.78,9.22Z" transform="translate(-3)"/><path d="M11.78,15.22a.75.75,0,0,0-1.06,0L8.25,17.69l-1-1a.75.75,0,0,0-1.06,1.06l1.5,1.5a.75.75,0,0,0,1.06,0l3-3A.75.75,0,0,0,11.78,15.22Z" transform="translate(-3)"/><path d="M17.25,10.5h-3a.75.75,0,0,0,0,1.5h3a.75.75,0,0,0,0-1.5Z" transform="translate(-3)"/><path d="M17.25,16.5h-3a.75.75,0,0,0,0,1.5h3a.75.75,0,0,0,0-1.5Z" transform="translate(-3)"/><path d="M19.5,3h-3V2.25a.76.76,0,0,0-.75-.75H14.12a2.25,2.25,0,0,0-4.24,0H8.25a.76.76,0,0,0-.75.75V3h-3A1.5,1.5,0,0,0,3,4.5v18A1.5,1.5,0,0,0,4.5,24h15A1.5,1.5,0,0,0,21,22.5V4.5A1.5,1.5,0,0,0,19.5,3ZM9,3h1.5a.76.76,0,0,0,.75-.75.75.75,0,0,1,1.5,0A.76.76,0,0,0,13.5,3H15V4.5H9ZM19.5,22.5H4.5V4.5h3v.75A.76.76,0,0,0,8.25,6h7.5a.76.76,0,0,0,.75-.75V4.5h3Z" transform="translate(-3)"/></svg>