<svg xmlns="http://www.w3.org/2000/svg" width="24" height="24" viewBox="0 0 24 24"><title>light_mode</title><path d="M12,8.73A3.27,3.27,0,1,1,8.73,12,3.28,3.28,0,0,1,12,8.73m0-2.18A5.45,5.45,0,1,0,17.45,12,5.45,5.45,0,0,0,12,6.55ZM1.09,13.09H3.27a1.09,1.09,0,1,0,0-2.18H1.09a1.09,1.09,0,0,0,0,2.18Zm19.64,0h2.18a1.09,1.09,0,0,0,0-2.18H20.73a1.09,1.09,0,0,0,0,2.18Zm-9.82-12V3.27a1.09,1.09,0,1,0,2.18,0V1.09a1.09,1.09,0,1,0-2.18,0Zm0,19.64v2.18a1.09,1.09,0,0,0,2.18,0V20.73a1.09,1.09,0,0,0-2.18,0ZM5.44,3.91A1.08,1.08,0,0,0,3.91,5.44L5.06,6.6a1.08,1.08,0,0,0,1.54,0,1.1,1.1,0,0,0,0-1.54ZM18.94,17.4a1.09,1.09,0,0,0-1.54,1.54l1.16,1.15a1.08,1.08,0,0,0,1.53-1.53Zm1.15-12a1.08,1.08,0,0,0-1.53-1.53L17.4,5.06a1.08,1.08,0,0,0,0,1.54,1.1,1.1,0,0,0,1.54,0ZM6.6,18.94A1.09,1.09,0,0,0,5.06,17.4L3.91,18.56a1.08,1.08,0,0,0,1.53,1.53Z"/></svg>