<svg xmlns="http://www.w3.org/2000/svg" width="24" height="24" viewBox="0 0 24 24"><path d="M21.83,0H2.17A2.17,2.17,0,0,0,0,2.17V21.83A2.17,2.17,0,0,0,2.17,24H21.83A2.17,2.17,0,0,0,24,21.83V2.17A2.17,2.17,0,0,0,21.83,0ZM7.43,20.72a.64.64,0,0,1-.64.63H4.11a.64.64,0,0,1-.64-.63V9.45a.64.64,0,0,1,.64-.63H6.79a.64.64,0,0,1,.64.63Zm-2-13A2.55,2.55,0,1,1,8,5.2,2.55,2.55,0,0,1,5.45,7.75Zm16,13a.58.58,0,0,1-.58.58H18a.58.58,0,0,1-.58-.58V15.49c0-.79.23-3.46-2.06-3.46-1.78,0-2.14,1.83-2.21,2.64v6.1a.58.58,0,0,1-.58.58H9.79a.58.58,0,0,1-.58-.58V9.4a.58.58,0,0,1,.58-.58h2.79a.58.58,0,0,1,.58.58v1a4,4,0,0,1,3.73-1.75c4.62,0,4.59,4.32,4.59,6.69v5.45Z"/></svg>