<svg xmlns="http://www.w3.org/2000/svg" width="24" height="24" viewBox="0 0 24 24"><title>palette</title><path d="M12,24A12,12,0,0,1,12,0c6.61,0,12,4.85,12,10.8A7.21,7.21,0,0,1,16.8,18H14.68a.59.59,0,0,0-.6.6.68.68,0,0,0,.15.4A3.05,3.05,0,0,1,15,21,3,3,0,0,1,12,24ZM12,2.4a9.6,9.6,0,0,0,0,19.2.59.59,0,0,0,.6-.6.66.66,0,0,0-.17-.42,3,3,0,0,1,2.25-5H16.8a4.8,4.8,0,0,0,4.8-4.8C21.6,6.17,17.29,2.4,12,2.4Z"/><circle cx="5.4" cy="11.4" r="1.8"/><circle cx="9" cy="6.6" r="1.8"/><circle cx="15" cy="6.6" r="1.8"/><circle cx="18.6" cy="11.4" r="1.8"/></svg>