<svg xmlns="http://www.w3.org/2000/svg" width="16" height="24" viewBox="0 0 16 24"><path d="M19.71,4.29l-4-4h0L15.63.23l0,0,0,0-.05,0,0,0,0,0,0,0,0,0-.05,0h-.58l-.05,0,0,0,0,0,0,0,0,0-.05,0,0,0,0,0-.08.06h0l-4,4a1,1,0,0,0,1.42,1.42L14,3.41V15a1,1,0,0,0,2,0V3.41l2.29,2.3a1,1,0,0,0,1.42-1.42Z" transform="translate(-4)"/><path d="M12.29,18.29,10,20.59V9A1,1,0,0,0,8,9V20.59l-2.29-2.3a1,1,0,0,0-1.42,1.42l4,4h0l.08.06,0,0,0,0,.05,0,0,0,0,0,0,0,0,0,.05,0h.58l.05,0,0,0,0,0,0,0,0,0,.05,0,0,0,0,0,.08-.06h0l4-4a1,1,0,0,0-1.42-1.42Z" transform="translate(-4)"/></svg>